#!OML:ASF E:\Steps\Project 1\Capture day 1\Session 2\Subject.ASF
:FULLY-SPECIFIED
:DEGREES
829
root 8.75414 22.6705 -20.3003 -157.208 0.674684 180.311
lowerback -27.4636 -3.09082 -5.32857
upperback -0.235063 -1.96479 0.298843
thorax 14.5972 -1.07485 2.54426
lowerneck -2.8428 -2.63117 -1.73489
upperneck 20.328 -2.8674 4.03714
head 6.72932 -0.665918 1.46228
rclavicle 1.77912e-014 0
rhumerus -46.4588 -17.4839 -74.9583
rradius 34.8967
rwrist -0.150467
rhand -5.79783 -55.6667
rfingers 7.12502
rthumb 20.0267 -84.6546
lclavicle 1.77912e-014 0
lhumerus -30.8247 8.74253 78.7994
lradius 20.378
lwrist -4.82931
lhand -21.282 -12.1278
lfingers 7.12502
lthumb 5.1021 17.7908
rfemur -24.7307 9.56586 18.4502
rtibia 10.8525
rfoot -17.7311 -5.06025
rtoes -30.9476
lfemur -22.6988 -8.23277 -21.1658
ltibia 13.4113
lfoot -10.7642 0.992751
ltoes -29.4807
830
root 8.76581 22.6715 -20.3317 -157.093 0.712222 179.934
lowerback -27.707 -3.20806 -5.7818
upperback -0.275042 -1.9394 0.295802
thorax 14.6772 -1.08737 2.79306
lowerneck -2.57856 -2.81602 -1.58769
upperneck 19.7995 -3.10961 3.64876
head 6.51291 -0.833862 1.29314
rclavicle 9.93923e-016 -2.38542e-014
rhumerus -46.162 -17.6051 -74.8704
rradius 35.1081
rwrist -0.202694
rhand -5.72451 -55.3043
rfingers 7.12502
rthumb 20.0972 -84.2849
lclavicle 9.93923e-016 -2.38542e-014
lhumerus -31.0584 9.08033 78.6956
lradius 19.7743
lwrist -4.97365
lhand -21.5301 -12.5449
lfingers 7.12502
lthumb 4.86251 17.3793
rfemur -24.5116 9.54163 18.0076
rtibia 10.357
rfoot -17.627 -5.18267
rtoes -31.681
lfemur -22.5431 -8.26343 -21.5644
ltibia 13.0983
lfoot -10.7165 0.907532
ltoes -29.337
831
root 8.77442 22.6682 -20.36 -156.891 0.581718 180.006
lowerback -27.7236 -3.17641 -5.59312
upperback -0.658291 -1.91276 0.299822
thorax 14.2337 -1.02254 2.71249
lowerneck -2.29251 -2.85733 -1.91602
upperneck 19.7424 -3.1992 4.1351
head 6.46005 -0.857039 1.50176
rclavicle 3.47873e-015 -7.15625e-015
rhumerus -46.509 -17.7045 -74.6872
rradius 35.39
rwrist -0.235929
rhand -5.89485 -54.9151
rfingers 7.12502
rthumb 19.9334 -83.9127
lclavicle 3.47873e-015 -7.15625e-015
lhumerus -32.0017 8.96993 78.428
lradius 19.4411
lwrist -5.24339
lhand -21.388 -12.5293
lfingers 7.12502
lthumb 4.99969 17.3918
rfemur -24.3528 9.45818 18.1359
rtibia 9.85117
rfoot -17.4423 -5.14542
rtoes -30.7705
lfemur -22.5537 -8.2561 -21.4075
ltibia 12.8752
lfoot -10.7013 0.85303
ltoes -29.9501
832
root 8.77839 22.6635 -20.3899 -156.736 0.400967 180.265
lowerback -27.9951 -3.16644 -5.22819
upperback -0.820355 -1.98929 0.407241
thorax 14.1761 -1.01902 2.59861
lowerneck -1.84785 -2.73703 -1.81579
upperneck 19.1788 -3.05293 4.08818
head 6.19586 -0.807984 1.47819
rclavicle 4.12478e-015 8.74653e-015
rhumerus -46.3881 -17.5345 -74.7028
rradius 35.4368
rwrist -0.528838
rhand -6.40567 -53.8931
rfingers 7.12502
rthumb 19.4423 -82.941
lclavicle 4.12478e-015 8.74653e-015
lhumerus -32.7128 8.94869 78.246
lradius 19.2006
lwrist -5.54996
lhand -21.0094 -12.2482
lfingers 7.12502
lthumb 5.36529 17.6639
rfemur -24.0808 9.30335 18.5129
rtibia 9.28442
rfoot -17.4351 -5.05365
rtoes -31.5315
lfemur -22.503 -8.25791 -21.0619
ltibia 12.6578
lfoot -10.7302 0.85196
ltoes -30.3859
833
root 8.78139 22.661 -20.4223 -156.655 0.263641 180.432
lowerback -28.3012 -3.1969 -4.95299
upperback -0.769303 -2.10878 0.480901
thorax 14.3839 -1.06025 2.47484
lowerneck -2.46274 -2.69934 -1.75746
upperneck 19.0607 -3.06273 4.06123
head 6.26394 -0.830984 1.45068
rclavicle 3.97569e-015 5.56597e-015
rhumerus -45.8018 -17.8198 -74.6883
rradius 35.3213
rwrist -0.370787
rhand -6.71081 -53.1075
rfingers 7.12502
rthumb 19.1489 -82.1848
lclavicle 3.97569e-015 5.56597e-015
lhumerus -32.8082 9.11995 78.0444
lradius 18.4745
lwrist -5.87348
lhand -21.1982 -12.7311
lfingers 7.12502
lthumb 5.18298 17.1855
rfemur -23.8107 9.0055 18.8077
rtibia 8.90959
rfoot -17.4474 -4.72356
rtoes -31.119
lfemur -22.3048 -8.26703 -20.8567
ltibia 12.3537
lfoot -10.7453 0.826193
ltoes -30.8238
834
root 8.78757 22.6607 -20.4516 -156.76 0.249559 180.338
lowerback -28.0981 -3.13994 -4.97555
upperback -0.859672 -2.02995 0.454461
thorax 14.1773 -1.0182 2.49537
lowerneck -2.87069 -2.73319 -1.82358
upperneck 18.9031 -3.16837 4.1887
head 6.29104 -0.893123 1.48943
rclavicle 7.7526e-015 -1.35174e-014
rhumerus -45.7466 -17.9722 -74.6425
rradius 35.8275
rwrist -0.683101
rhand -6.91352 -53.5524
rfingers 7.12502
rthumb 18.954 -82.6489
lclavicle 7.7526e-015 -1.35174e-014
lhumerus -33.0089 9.13791 77.8998
lradius 17.7373
lwrist -6.42313
lhand -21.5079 -13.3245
lfingers 7.12502
lthumb 4.88395 16.5992
rfemur -23.5207 8.86436 18.7594
rtibia 8.79921
rfoot -17.5216 -4.49955
rtoes -30.305
lfemur -21.8689 -8.23456 -20.9637
ltibia 11.9601
lfoot -10.7042 0.7288
ltoes -31.1721
835
root 8.79598 22.6559 -20.4709 -157.105 0.449761 179.715
lowerback -27.6795 -3.16805 -5.64456
upperback -0.846571 -1.86428 0.292584
thorax 13.9926 -0.983489 2.75591
lowerneck -2.9617 -2.75506 -1.81096
upperneck 18.5345 -3.25008 4.26983
head 6.19345 -0.948386 1.5033
rclavicle -2.78299e-015 -1.15295e-014
rhumerus -45.6311 -17.7497 -74.8517
rradius 36.6637
rwrist -1.5151
rhand -6.88043 -54.7685
rfingers 7.12502
rthumb 18.9858 -83.8619
lclavicle -2.78299e-015 -1.15295e-014
lhumerus -33.2367 9.3361 77.6971
lradius 17.2849
lwrist -7.23529
lhand -21.4114 -13.2058
lfingers 7.12502
lthumb 4.97712 16.7157
rfemur -23.0797 8.87157 18.0247
rtibia 8.73279
rfoot -17.6469 -4.44097
rtoes -29.315
lfemur -21.1791 -8.27942 -21.7504
ltibia 11.5466
lfoot -10.6631 0.670466
ltoes -30.9111
836
root 8.7903 22.6568 -20.4959 -156.623 0.124277 180.331
lowerback -28.2252 -2.98044 -4.72135
upperback -1.01518 -1.86392 0.41668
thorax 14.0354 -0.908779 2.38092
lowerneck -2.75165 -2.73407 -1.62678
upperneck 18.1111 -3.24472 4.20922
head 6.01885 -0.957878 1.4524
rclavicle 1.78906e-015 -1.94809e-014
rhumerus -45.5056 -17.7016 -74.931
rradius 37.1353
rwrist -2.13232
rhand -6.57838 -55.1922
rfingers 7.12502
rthumb 19.2763 -84.2569
lclavicle 1.78906e-015 -1.94809e-014
lhumerus -33.5562 9.66938 77.3394
lradius 16.8253
lwrist -8.43632
lhand -21.0301 -12.9332
lfingers 7.12502
lthumb 5.34526 16.9793
rfemur -23.3704 8.53487 18.8199
rtibia 8.59108
rfoot -17.6843 -4.05778
rtoes -29.5833
lfemur -21.4814 -8.31471 -20.9512
ltibia 11.2791
lfoot -10.599 0.672025
ltoes -30.4738
837
root 8.80236 22.6545 -20.5222 -156.462 0.134811 180.306
lowerback -28.7696 -3.03246 -4.83083
upperback -0.949113 -1.85419 0.434695
thorax 14.3679 -0.912522 2.45225
lowerneck -2.67193 -2.81341 -1.4545
upperneck 17.5045 -3.41029 4.19396
head 5.8161 -1.06306 1.40481
rclavicle -2.78299e-015 -1.27222e-014
rhumerus -45.0855 -17.7603 -75.0409
rradius 37.2609
rwrist -2.32687
rhand -6.52582 -54.8612
rfingers 7.12502
rthumb 19.3268 -83.9208
lclavicle -2.78299e-015 -1.27222e-014
lhumerus -33.6875 10.3203 76.8433
lradius 16.3675
lwrist -9.89154
lhand -20.6106 -12.5156
lfingers 7.12502
lthumb 5.75027 17.3864
rfemur -23.3572 8.67781 18.7615
rtibia 8.36889
rfoot -17.636 -4.15621
rtoes -29.408
lfemur -21.4124 -8.28854 -20.9078
ltibia 10.9639
lfoot -10.5119 0.651401
ltoes -29.4915
838
root 8.81168 22.6539 -20.5411 -156.575 0.196038 180.138
lowerback -28.593 -3.07168 -5.04263
upperback -1.13425 -1.82329 0.417687
thorax 14.0746 -0.893237 2.56792
lowerneck -2.18349 -2.83061 -1.22279
upperneck 17.0266 -3.4101 3.8841
head 5.57355 -1.09085 1.27186
rclavicle 2.38045e-014 2.18663e-014
rhumerus -45.1824 -17.7287 -74.9166
rradius 37.3923
rwrist -2.40603
rhand -6.6689 -54.2448
rfingers 7.12502
rthumb 19.1892 -83.3182
lclavicle 2.38045e-014 2.18663e-014
lhumerus -34.1963 11.012 76.2535
lradius 15.7848
lwrist -11.3306
lhand -20.4654 -12.3291
lfingers 7.12502
lthumb 5.8905 17.569
rfemur -23.1073 8.74786 18.58
rtibia 8.21479
rfoot -17.5986 -4.2056
rtoes -29.2823
lfemur -21.0642 -8.29542 -21.0878
ltibia 10.6767
lfoot -10.472 0.637759
ltoes -28.9151
839
root 8.81451 22.6564 -20.5545 -156.498 0.219709 179.877
lowerback -28.5909 -3.13241 -5.26822
upperback -1.19817 -1.82072 0.430731
thorax 14.0062 -0.899122 2.70687
lowerneck -2.44239 -2.82415 -1.22666
upperneck 16.7106 -3.41769 3.67206
head 5.5161 -1.13396 1.20011
rclavicle -6.01324e-015 1.35174e-014
rhumerus -44.7202 -17.7858 -74.7992
rradius 37.3041
rwrist -2.46532
rhand -6.69376 -54.3181
rfingers 7.12502
rthumb 19.1653 -83.3938
lclavicle -6.01324e-015 1.35174e-014
lhumerus -34.3369 12.1788 75.6218
lradius 14.9736
lwrist -13.085
lhand -20.5257 -12.7736
lfingers 7.12502
lthumb 5.83227 17.1261
rfemur -23.1285 8.42721 18.323
rtibia 8.21316
rfoot -17.7179 -3.93703
rtoes -28.3403
lfemur -21.0255 -8.34969 -21.4062
ltibia 10.5796
lfoot -10.5033 0.61368
ltoes -29.2762
840
root 8.8215 22.6555 -20.575 -156.381 0.264234 180.045
lowerback -28.6695 -3.02474 -5.03897
upperback -1.41424 -1.72651 0.483774
thorax 13.7827 -0.820769 2.67886
lowerneck -2.22461 -2.8817 -1.23608
upperneck 16.412 -3.49862 3.63822
head 5.38765 -1.1893 1.18814
rclavicle -1.54555e-014 1.19271e-015
rhumerus -44.6063 -17.9459 -74.5891
rradius 37.1973
rwrist -2.36491
rhand -6.73066 -55.1146
rfingers 7.12502
rthumb 19.1298 -84.1938
lclavicle -1.54555e-014 1.19271e-015
lhumerus -34.9607 12.8931 74.9501
lradius 14.4843
lwrist -14.6562
lhand -20.5021 -13.0554
lfingers 7.12502
lthumb 5.85504 16.8437
rfemur -23.2132 8.46283 18.5326
rtibia 8.24682
rfoot -17.7302 -3.87294
rtoes -29.0936
lfemur -21.0247 -8.33429 -21.1372
ltibia 10.4515
lfoot -10.5738 0.740728
ltoes -29.0884
841
root 8.82454 22.6517 -20.5965 -156.204 0.171404 180.213
lowerback -28.9323 -2.97486 -4.79775
upperback -1.4057 -1.7263 0.545373
thorax 13.91 -0.806721 2.61015
lowerneck -2.56006 -2.87189 -1.17986
upperneck 16.0625 -3.53708 3.62696
head 5.33613 -1.23036 1.16703
rclavicle 1.21756e-014 3.97569e-015
rhumerus -44.2214 -18.0221 -74.6401
rradius 37.4106
rwrist -2.24965
rhand -6.69016 -55.1057
rfingers 7.12502
rthumb 19.1688 -84.181
lclavicle 1.21756e-014 3.97569e-015
lhumerus -35.0062 13.9659 74.251
lradius 13.88
lwrist -16.1974
lhand -20.3988 -12.9423
lfingers 7.12502
lthumb 5.95478 16.9541
rfemur -23.2637 8.24886 18.8145
rtibia 8.19177
rfoot -17.7724 -3.65834
rtoes -28.4872
lfemur -21.0329 -8.38777 -20.9023
ltibia 10.2615
lfoot -10.569 0.768353
ltoes -29.2626
842
root 8.82944 22.6475 -20.6125 -156.158 0.107009 180.193
lowerback -29.0124 -2.95981 -4.80092
upperback -1.34285 -1.70863 0.557759
thorax 14.0183 -0.805331 2.62979
lowerneck -3.0042 -2.87455 -1.06315
upperneck 15.7398 -3.58755 3.51463
head 5.30901 -1.28041 1.10243
rclavicle 9.79014e-015 -7.95139e-016
rhumerus -43.8687 -17.8664 -74.8632
rradius 37.8234
rwrist -2.44516
rhand -6.38591 -55.1866
rfingers 7.12502
rthumb 19.4613 -84.2326
lclavicle 9.79014e-015 -7.95139e-016
lhumerus -34.8225 15.4077 73.3979
lradius 12.9852
lwrist -18.0592
lhand -20.3965 -12.8565
lfingers 7.12502
lthumb 5.95701 17.0397
rfemur -23.1784 8.12004 18.8686
rtibia 8.11167
rfoot -17.8079 -3.66437
rtoes -29.5035
lfemur -20.9703 -8.41848 -20.9074
ltibia 10.1711
lfoot -10.5994 0.741626
ltoes -30.2133
